# xmcd
#
# Track frame offsets:
#	150
#	14652
#	31289
#	50839
#	69266
#	84705
#	100488
#	119754
#	135628
#	155410
#	173644
#
# Disc length: 2570 seconds
#
# Revision: 1
# Processed by: cddbd v1.5.2PL0 Copyright (c) Steve Scherf et al.
# Submitted via: audiograbber 1.83.01
#
DISCID=980a080b
DTITLE=Oklahoma - Máshol
DYEAR=2010
DGENRE=Country
TTITLE0=Countryside
TTITLE1=Égi találka
TTITLE2=USA-ból jöttem
TTITLE3=Régi út
TTITLE4=Éjféli bûbáj
TTITLE5=Szép kép
TTITLE6=Érte sose sírj
TTITLE7=Ász vad
TTITLE8=A folyón át
TTITLE9=Úton lenni
TTITLE10=Máshol
EXTD=
EXTT0=
EXTT1=
EXTT2=
EXTT3=
EXTT4=
EXTT5=
EXTT6=
EXTT7=
EXTT8=
EXTT9=
EXTT10=
PLAYORDER=
